<svg width="24" height="24" viewBox="0 0 24 24" fill="none" xmlns="http://www.w3.org/2000/svg">
<path d="M8.44109 14.3122V9.6478L15.6563 1.8182C15.6858 1.79126 15.7254 1.77615 15.7668 1.77615H21.9266C22.0638 1.77615 22.1352 1.92759 22.0421 2.02089L13.1577 12.1594L8.44109 14.3122ZM1.50018 20.2443V12.4977V5.39338C1.49979 5.31263 1.50015 9.80768 1.50018 5.39338L6.98411 0.318848C7.07093 0.318848 7.14133 0.384093 7.14133 0.464578C7.14133 9.59882 7.14133 14.8658 7.14133 24L1.50018 20.2443ZM15.6825 22.907C15.6337 22.907 15.5877 22.886 15.558 22.8501L8.44109 14.3122L13.1577 12.1594L22.4629 22.6676C22.5487 22.7625 22.476 22.907 22.3425 22.907H15.6825Z" fill="url(#paint0_linear_484_906)"/>
<defs>
<linearGradient id="paint0_linear_484_906" x1="22.4355" y1="11.6858" x2="-7.73585" y2="11.6858" gradientUnits="userSpaceOnUse">
<stop offset="0.396002" stop-color="#8346FD"/>
<stop offset="0.661811" stop-color="#55049B"/>
</linearGradient>
</defs>
</svg>
